# xmcd
#
# Track frame offsets: 
#        150
#        7538
#        18161
#        38686
#        49786
#        63642
#        73958
#        79080
#        96338
#
# Disc length: 1648 seconds
#
# Revision: 2
# Processed by: cddbd v1.5.2PL0 Copyright (c) Steve Scherf et al.
# Submitted via: ExactAudioCopy v0.95a5
#
DISCID=69066e09
DTITLE=Pappo - Pappo's Blues - Volumen 3
DYEAR=1972
DGENRE=
TTITLE0=Stratocaster Boogie
TTITLE1=Pájaro metálico
TTITLE2=Sucio y desprolijo
TTITLE3=El sur de la ciudad
TTITLE4=Sandwiches de miga
TTITLE5=El brujo y el tiempo
TTITLE6=Trabajando en el ferrocarril
TTITLE7=Caras en el parque
TTITLE8=Siempre es lo mismo nena
EXTD=
EXTT0=
EXTT1=
EXTT2=
EXTT3=
EXTT4=
EXTT5=
EXTT6=
EXTT7=
EXTT8=
PLAYORDER=
